<svg xmlns="http://www.w3.org/2000/svg" viewBox="0 0 900 1200">
<defs><linearGradient id="bg" x1="0" y1="0" x2="1" y2="1"><stop stop-color="#2c3b33"/><stop offset=".55" stop-color="#c7c0ad"/><stop offset="1" stop-color="#182b24"/></linearGradient><pattern id="grain" width="36" height="36" patternUnits="userSpaceOnUse"><path d="M0 36 36 0" stroke="#fff" stroke-opacity=".035"/></pattern></defs>
<rect width="900" height="1200" rx="46" fill="url(#bg)"/><rect width="900" height="1200" fill="url(#grain)"/>
<g fill="none" stroke="#f4f7ee" stroke-width="11" stroke-linecap="round" stroke-linejoin="round" opacity=".92">
<path d="M245 708c24-98 101-158 214-162 111-4 194 51 232 150"/>
<path d="M196 733c74 72 171 108 292 108 119 0 218-36 296-108"/>
<path d="M245 708c-70-66-115-129-135-189M690 697c72-42 120-95 143-160"/>
<path d="M372 557c-33-68-67-119-103-153M565 570c42-70 86-119 132-147"/>
<path d="M326 722c51-28 96-28 134 0M509 725c51-30 96-31 134-3"/>
<path d="M337 839c-14 46-39 86-76 119M543 841c16 52 47 95 92 129"/>
<path d="M217 984c155-31 310-31 466 0"/>
<path d="M417 667c-25-26-54-40-88-42M482 666c26-27 57-42 93-44"/>
<circle cx="384" cy="650" r="8" fill="#f4f7ee" stroke="none"/><circle cx="522" cy="649" r="8" fill="#f4f7ee" stroke="none"/>
</g>
</svg>
