<svg xmlns="http://www.w3.org/2000/svg" viewBox="0 0 900 1200">
<defs><linearGradient id="bg" x1="0" y1="0" x2="1" y2="1"><stop stop-color="#263a30"/><stop offset=".55" stop-color="#c2c8bb"/><stop offset="1" stop-color="#172b24"/></linearGradient><pattern id="grain" width="36" height="36" patternUnits="userSpaceOnUse"><path d="M0 36 36 0" stroke="#fff" stroke-opacity=".035"/></pattern></defs>
<rect width="900" height="1200" rx="46" fill="url(#bg)"/><rect width="900" height="1200" fill="url(#grain)"/>
<g fill="none" stroke="#f4f7ee" stroke-width="11" stroke-linecap="round" stroke-linejoin="round" opacity=".92">
<path d="M458 1004c-32-160-25-315 20-466"/>
<path d="M469 614c-85 49-170 58-255 28 74-34 121-88 141-164-61 18-120 5-178-39 105-5 180-58 226-159 46 70 102 95 168 74 3 72 44 129 124 170-65 27-129 22-194-15 55 89 127 136 218 143-86 61-170 63-250 7"/>
<path d="M414 760c-60 32-118 48-174 47M501 781c74 38 144 54 210 48"/>
<path d="M452 1004c-49-53-96-71-142-54M473 1005c46-57 96-77 150-60"/>
<path d="M322 468c43 9 80 4 112-15M569 512c49 16 94 12 133-10M381 630c45 21 89 23 134 6"/>
</g>
</svg>
